<?xml version="1.0" encoding="UTF-8" standalone="no"?>
<svg width="16px" height="16px" viewBox="0 0 16 16" version="1.1" xmlns="http://www.w3.org/2000/svg" xmlns:xlink="http://www.w3.org/1999/xlink">
    <!-- Generator: Sketch 46.2 (44496) - http://www.bohemiancoding.com/sketch -->
    <title>账户管理@2x</title>
    <desc>Created with Sketch.</desc>
    <defs></defs>
    <g id="切图" stroke="none" stroke-width="1" fill="none" fill-rule="evenodd">
        <g id="账户管理" fill-rule="nonzero" fill="#FFFFFF">
            <g id="Group-9" transform="translate(1.000000, 0.000000)">
                <path d="M7.14666667,8.68148148 C4.76444444,8.68148148 2.82864198,6.7437037 2.82864198,4.36345679 C2.82864198,1.98320988 4.76641975,0.0454320988 7.14666667,0.0454320988 C9.52888889,0.0454320988 11.4646914,1.98320988 11.4646914,4.36345679 C11.4646914,6.7437037 9.52691358,8.68148148 7.14666667,8.68148148 Z M7.14666667,0.888888889 C5.23061728,0.888888889 3.67407407,2.44740741 3.67407407,4.36148148 C3.67407407,6.27555556 5.23259259,7.83407407 7.14666667,7.83407407 C9.06074074,7.83407407 10.6192593,6.27555556 10.6192593,4.36148148 C10.6192593,2.44740741 9.06074074,0.888888889 7.14666667,0.888888889 Z" id="Shape"></path>
                <path d="M7.14666667,8.71111111 C4.74864198,8.71111111 2.79901235,6.75950617 2.79901235,4.36345679 C2.79901235,1.9654321 4.75061728,0.0158024691 7.14666667,0.0158024691 C9.54469136,0.0158024691 11.494321,1.96740741 11.494321,4.36345679 C11.494321,6.75950617 9.54469136,8.71111111 7.14666667,8.71111111 Z M7.14666667,0.0730864198 C4.78222222,0.0730864198 2.8582716,1.99703704 2.8582716,4.36148148 C2.8582716,6.72592593 4.78024691,8.65185185 7.14666667,8.65185185 C9.51111111,8.65185185 11.4350617,6.72790123 11.4350617,4.36345679 C11.4350617,1.99901235 9.51111111,0.0730864198 7.14666667,0.0730864198 Z M7.14666667,7.8637037 C5.21481481,7.8637037 3.64444444,6.29333333 3.64444444,4.36148148 C3.64444444,2.42962963 5.21481481,0.859259259 7.14666667,0.859259259 C9.07851852,0.859259259 10.6488889,2.42962963 10.6488889,4.36148148 C10.6488889,6.29333333 9.07654321,7.8637037 7.14666667,7.8637037 L7.14666667,7.8637037 Z M7.14666667,0.918518519 C5.24839506,0.918518519 3.7037037,2.46320988 3.7037037,4.36148148 C3.7037037,6.25975309 5.24839506,7.80444444 7.14666667,7.80444444 C9.04493827,7.80444444 10.5896296,6.25975309 10.5896296,4.36148148 C10.5896296,2.46320988 9.04493827,0.918518519 7.14666667,0.918518519 Z" id="Shape"></path>
                <path d="M0.0375308642,15.4212346 L0.0375308642,14.9985185 C0.0375308642,11.0479012 3.25135802,7.83604938 7.2,7.83604938 C8.14419753,7.83604938 9.06271605,8.01777778 9.92987654,8.37530864 C10.0345679,8.41876543 10.1155556,8.49975309 10.1590123,8.60444444 C10.2024691,8.7091358 10.2024691,8.8237037 10.1590123,8.92839506 C10.0938272,9.08641975 9.93975309,9.1891358 9.76790123,9.1891358 C9.71259259,9.1891358 9.65728395,9.17925926 9.60592593,9.15753086 C8.84148148,8.84148148 8.03160494,8.68345679 7.19802469,8.68345679 C3.84987654,8.68345679 1.11407407,11.2592593 0.894814815,14.5777778 L6.19061728,14.5777778 C6.4237037,14.5777778 6.61333333,14.7674074 6.61333333,15.0004938 C6.61333333,15.2335802 6.4237037,15.4232099 6.19061728,15.4232099 L0.0375308642,15.4232099 L0.0375308642,15.4212346 L0.0375308642,15.4212346 Z" id="Shape"></path>
                <path d="M6.1945679,15.4508642 L0.00790123457,15.4508642 L0.00790123457,14.9985185 C0.00790123457,11.0320988 3.23358025,7.80641975 7.2,7.80641975 C8.14814815,7.80641975 9.07061728,7.98814815 9.9417284,8.34765432 C10.054321,8.39308642 10.1412346,8.48 10.1866667,8.59259259 C10.2320988,8.70320988 10.2340741,8.82765432 10.1866667,8.9382716 C10.1155556,9.10814815 9.95160494,9.21876543 9.76790123,9.21876543 C9.70864198,9.21876543 9.65135802,9.20691358 9.59604938,9.18518519 C8.83753086,8.8691358 8.03160494,8.71111111 7.2,8.71111111 C3.91111111,8.71111111 1.16148148,11.2711111 0.93037037,14.5461728 L6.1945679,14.5461728 C6.44345679,14.5461728 6.64691358,14.7496296 6.64691358,14.9985185 C6.64691358,15.2474074 6.44345679,15.4508642 6.1945679,15.4508642 L6.1945679,15.4508642 Z M0.0671604938,15.3916049 L6.19259259,15.3916049 C6.40987654,15.3916049 6.58567901,15.2158025 6.58567901,14.9985185 C6.58567901,14.7812346 6.40987654,14.6054321 6.19259259,14.6054321 L0.867160494,14.6054321 L0.869135802,14.5738272 C0.975802469,12.96 1.68098765,11.462716 2.8562963,10.3624691 C4.03358025,9.26024691 5.5762963,8.65185185 7.20197531,8.65185185 C8.03950617,8.65185185 8.85333333,8.81185185 9.6217284,9.12987654 C9.6691358,9.14962963 9.72049383,9.15950617 9.77185185,9.15950617 C9.93185185,9.15950617 10.0740741,9.06469136 10.1353086,8.91654321 C10.1748148,8.81975309 10.1748148,8.71308642 10.1353086,8.6162963 C10.0958025,8.51950617 10.0187654,8.44444444 9.92197531,8.40296296 C9.05876543,8.04740741 8.14419753,7.86567901 7.20197531,7.86567901 C3.2691358,7.86567901 0.0691358025,11.065679 0.0691358025,14.9985185 L0.0691358025,15.3916049 L0.0671604938,15.3916049 Z" id="Shape"></path>
                <path d="M11.5397531,15.9565432 C11.3817284,15.9565432 11.225679,15.8893827 11.122963,15.7767901 C11.0044444,15.6464198 10.7535802,15.4528395 10.5975309,15.4528395 C10.4375309,15.4528395 10.1748148,15.6641975 10.0760494,15.7708642 C9.97530864,15.8814815 9.81925926,15.9466667 9.66320988,15.9466667 C9.58617284,15.9466667 9.51506173,15.9308642 9.44790123,15.9032099 L9.43209877,15.897284 L8.65975309,15.4666667 L8.64592593,15.4567901 C8.44444444,15.3145679 8.36740741,15.04 8.46617284,14.8128395 C8.48592593,14.7634568 8.52148148,14.6567901 8.52148148,14.5718519 C8.52148148,14.2222222 8.23703704,13.9358025 7.8854321,13.9358025 L7.85382716,13.9358025 C7.64246914,13.9358025 7.4745679,13.7698765 7.42716049,13.5130864 C7.41925926,13.4755556 7.36,13.145679 7.36,12.877037 C7.36,12.6004938 7.42518519,12.2548148 7.42716049,12.2409877 C7.47654321,11.9841975 7.64246914,11.8182716 7.85382716,11.8182716 L7.8854321,11.8182716 C8.23506173,11.8182716 8.52148148,11.5338272 8.52148148,11.1822222 C8.52148148,11.091358 8.48,10.9787654 8.46617284,10.9412346 C8.36740741,10.7160494 8.44444444,10.4395062 8.64790123,10.2992593 L8.6637037,10.2893827 L9.47753086,9.84296296 L9.49333333,9.83703704 C9.55851852,9.80938272 9.62962963,9.79555556 9.70469136,9.79555556 C9.86074074,9.79555556 10.0148148,9.85876543 10.1155556,9.96740741 C10.2320988,10.0898765 10.477037,10.2716049 10.6291358,10.2716049 C10.7812346,10.2716049 11.0241975,10.0938272 11.1407407,9.97333333 C11.2414815,9.86864198 11.3955556,9.8054321 11.5496296,9.8054321 C11.6266667,9.8054321 11.6977778,9.81925926 11.7649383,9.84888889 L11.7807407,9.85481481 L12.5669136,10.291358 L12.5807407,10.3012346 C12.7841975,10.4434568 12.8612346,10.72 12.7604938,10.9451852 C12.7446914,10.9807407 12.7051852,11.0933333 12.7051852,11.1841975 C12.7051852,11.5338272 12.9896296,11.8202469 13.3412346,11.8202469 L13.3728395,11.8202469 C13.5802469,11.8202469 13.7520988,11.9901235 13.7995062,12.242963 C13.8014815,12.2567901 13.8666667,12.6024691 13.8666667,12.8790123 C13.8666667,13.1555556 13.8014815,13.5012346 13.7995062,13.5150617 C13.7501235,13.7718519 13.5822222,13.9377778 13.3708642,13.9377778 L13.3392593,13.9377778 C12.9896296,13.9377778 12.7032099,14.2222222 12.7032099,14.5738272 C12.7032099,14.6646914 12.7446914,14.7792593 12.7604938,14.8148148 C12.8592593,15.0380247 12.7822222,15.3145679 12.5807407,15.4567901 L12.5649383,15.4666667 L11.7649383,15.9091358 L11.7491358,15.9150617 C11.6859259,15.942716 11.6148148,15.9565432 11.5397531,15.9565432 Z M10.5975309,14.7555556 C10.8345679,14.7555556 11.0854321,14.8523457 11.3422222,15.0439506 C11.4311111,15.1091358 11.5061728,15.1762963 11.5575309,15.225679 L12.0671605,14.9432099 C12.0375309,14.8444444 12.0059259,14.7120988 12.0059259,14.5718519 C12.0059259,13.9081481 12.4918519,13.3530864 13.1338272,13.254321 C13.1496296,13.1496296 13.1674074,12.9975309 13.1674074,12.877037 C13.1674074,12.7565432 13.1496296,12.6044444 13.1338272,12.4997531 C12.4918519,12.4009877 12.0059259,11.8459259 12.0059259,11.1822222 C12.0059259,11.0419753 12.0355556,10.9076543 12.0671605,10.8108642 L11.5634568,10.5283951 C11.5120988,10.5738272 11.4390123,10.637037 11.3501235,10.6982716 C11.0992593,10.8740741 10.8562963,10.9649383 10.6291358,10.9649383 C10.4,10.9649383 10.1550617,10.8740741 9.90222222,10.694321 C9.81333333,10.6311111 9.7382716,10.5679012 9.68691358,10.5204938 L9.15753086,10.8108642 C9.18716049,10.9096296 9.21679012,11.0419753 9.21679012,11.1822222 C9.21679012,11.8459259 8.7308642,12.4009877 8.08888889,12.4997531 C8.07308642,12.6044444 8.05530864,12.7565432 8.05530864,12.877037 C8.05530864,12.9995062 8.07308642,13.1476543 8.08888889,13.254321 C8.7308642,13.3530864 9.21679012,13.9081481 9.21679012,14.5718519 C9.21679012,14.7120988 9.18716049,14.8464198 9.15555556,14.9451852 L9.64148148,15.2177778 C9.69283951,15.1683951 9.76592593,15.1051852 9.85481481,15.04 C10.1135802,14.8503704 10.3624691,14.7555556 10.5975309,14.7555556 L10.5975309,14.7555556 Z" id="Shape"></path>
                <path d="M11.5397531,15.9861728 C11.3718519,15.9861728 11.2098765,15.9150617 11.1012346,15.7965432 C10.9807407,15.6641975 10.7397531,15.4824691 10.5975309,15.4824691 C10.4533333,15.4824691 10.1985185,15.68 10.0977778,15.7906173 C9.99111111,15.9071605 9.8291358,15.9762963 9.66320988,15.9762963 C9.58222222,15.9762963 9.50518519,15.9604938 9.43604938,15.9288889 L9.4182716,15.9209877 L8.64395062,15.4883951 L8.63012346,15.4785185 C8.41679012,15.3283951 8.33580247,15.0380247 8.44049383,14.7990123 C8.46024691,14.7516049 8.49382716,14.6508642 8.49382716,14.5698765 C8.49382716,14.2360494 8.22123457,13.9634568 7.88740741,13.9634568 L7.85580247,13.9634568 C7.63061728,13.9634568 7.4508642,13.7876543 7.39950617,13.517037 C7.39160494,13.4795062 7.33234568,13.1437037 7.33234568,12.8750617 C7.33234568,12.5906173 7.39950617,12.237037 7.39950617,12.2330864 C7.4508642,11.9624691 7.63061728,11.7866667 7.85580247,11.7866667 L7.88740741,11.7866667 C8.22123457,11.7866667 8.49382716,11.5140741 8.49382716,11.1802469 C8.49382716,11.0953086 8.45432099,10.9866667 8.44049383,10.9511111 C8.33580247,10.7140741 8.41679012,10.4217284 8.63209877,10.2735802 L8.64987654,10.2617284 L9.46765432,9.81333333 L9.48345679,9.80740741 C9.55259259,9.77777778 9.62765432,9.76197531 9.70666667,9.76197531 C9.87061728,9.76197531 10.0325926,9.8291358 10.1392593,9.9437037 C10.2577778,10.0681481 10.4948148,10.24 10.6330864,10.24 C10.7693827,10.24 11.0044444,10.0720988 11.122963,9.94962963 C11.2296296,9.83901235 11.3896296,9.77185185 11.5535802,9.77185185 C11.6345679,9.77185185 11.7116049,9.78765432 11.7807407,9.81728395 L11.7985185,9.82518519 L12.5866667,10.2637037 L12.6004938,10.2735802 C12.8138272,10.4237037 12.8967901,10.7160494 12.7901235,10.9530864 C12.7762963,10.9846914 12.7367901,11.0953086 12.7367901,11.1802469 C12.7367901,11.5140741 13.0093827,11.7866667 13.3432099,11.7866667 L13.3748148,11.7866667 C13.5980247,11.7866667 13.7817284,11.9664198 13.8311111,12.2330864 C13.8330864,12.2469136 13.8982716,12.5945679 13.8982716,12.8750617 C13.8982716,13.1575309 13.8330864,13.5032099 13.8311111,13.517037 C13.7797531,13.7876543 13.6,13.9634568 13.3748148,13.9634568 L13.3432099,13.9634568 C13.0093827,13.9634568 12.7367901,14.2360494 12.7367901,14.5698765 C12.7367901,14.6548148 12.7762963,14.7674074 12.7901235,14.7990123 C12.8948148,15.0360494 12.8138272,15.3283951 12.5985185,15.4765432 L12.5807407,15.4883951 L11.7787654,15.9308642 L11.762963,15.9367901 C11.6938272,15.9703704 11.6187654,15.9861728 11.5397531,15.9861728 L11.5397531,15.9861728 Z M10.5975309,15.4232099 C10.7654321,15.4232099 11.0182716,15.6187654 11.1446914,15.757037 C11.2414815,15.8637037 11.3876543,15.9269136 11.5377778,15.9269136 L11.5437037,15.9269136 C11.6128395,15.9269136 11.6780247,15.9130864 11.737284,15.8874074 L11.7511111,15.8814815 L12.5491358,15.4409877 L12.562963,15.4311111 C12.7545679,15.2967901 12.8276543,15.0380247 12.7328395,14.8246914 C12.717037,14.7871605 12.6735802,14.6666667 12.6735802,14.5718519 C12.6735802,14.2044444 12.9718519,13.9061728 13.3392593,13.9061728 L13.3708642,13.9061728 C13.5664198,13.9061728 13.7244444,13.7501235 13.7698765,13.5071605 C13.7698765,13.5032099 13.837037,13.1516049 13.837037,12.877037 C13.837037,12.6024691 13.7718519,12.2607407 13.7698765,12.2469136 C13.7244444,12.0079012 13.5644444,11.8479012 13.3708642,11.8479012 L13.3392593,11.8479012 C12.9718519,11.8479012 12.6735802,11.5496296 12.6735802,11.1822222 C12.6735802,11.0874074 12.7150617,10.9688889 12.7308642,10.931358 C12.825679,10.7180247 12.7525926,10.457284 12.5609877,10.322963 L12.5471605,10.3130864 L11.762963,9.87851852 L11.7491358,9.87259259 C11.6859259,9.84493827 11.6167901,9.83111111 11.545679,9.83111111 C11.3995062,9.83111111 11.2553086,9.89037037 11.1585185,9.9891358 C11.0340741,10.1175309 10.7871605,10.297284 10.6251852,10.297284 C10.4632099,10.297284 10.214321,10.1135802 10.0898765,9.98320988 C9.99308642,9.88246914 9.84691358,9.82123457 9.69876543,9.82123457 C9.62765432,9.82123457 9.56049383,9.83506173 9.49925926,9.86074074 L9.4854321,9.86666667 L8.67358025,10.3130864 L8.65975309,10.322963 C8.46814815,10.4553086 8.39506173,10.7160494 8.48987654,10.9293827 C8.48987654,10.931358 8.5491358,11.0676543 8.5491358,11.1822222 C8.5491358,11.5496296 8.2508642,11.8479012 7.88345679,11.8479012 L7.85185185,11.8479012 C7.6562963,11.8479012 7.50024691,12.0039506 7.45481481,12.2469136 C7.45481481,12.2508642 7.38765432,12.5985185 7.38765432,12.877037 C7.38765432,13.1397531 7.44691358,13.4716049 7.45481481,13.5071605 C7.50024691,13.7501235 7.6562963,13.9061728 7.85382716,13.9061728 L7.8854321,13.9061728 C8.25283951,13.9061728 8.55111111,14.2044444 8.55111111,14.5718519 C8.55111111,14.6804938 8.49975309,14.8088889 8.49382716,14.822716 C8.39901235,15.0360494 8.47209877,15.2967901 8.6637037,15.4291358 L8.67753086,15.4390123 L9.44592593,15.8696296 L9.45975309,15.8755556 C9.52296296,15.9032099 9.59209877,15.917037 9.66320988,15.917037 C9.81135802,15.917037 9.95753086,15.8538272 10.054321,15.7511111 C10.1590123,15.6365432 10.425679,15.4232099 10.5975309,15.4232099 L10.5975309,15.4232099 Z M11.5535802,15.2612346 L11.5377778,15.2454321 C11.4903704,15.2 11.417284,15.1328395 11.3244444,15.065679 C11.0716049,14.8780247 10.8266667,14.7832099 10.5975309,14.7832099 C10.3703704,14.7832099 10.1274074,14.8760494 9.8745679,15.0597531 C9.7837037,15.1269136 9.71061728,15.1920988 9.66320988,15.2355556 L9.64740741,15.251358 L9.12197531,14.957037 L9.12987654,14.9333333 C9.15753086,14.8444444 9.1891358,14.7101235 9.1891358,14.5698765 C9.1891358,13.9219753 8.72493827,13.3807407 8.08691358,13.2819753 L8.06518519,13.2780247 L8.06123457,13.2562963 C8.0454321,13.1496296 8.02765432,12.9975309 8.02765432,12.8750617 C8.02765432,12.7525926 8.04740741,12.6004938 8.06123457,12.4938272 L8.06518519,12.4720988 L8.08691358,12.4681481 C8.72691358,12.3693827 9.1891358,11.8281481 9.1891358,11.1802469 C9.1891358,11.04 9.15753086,10.905679 9.12987654,10.8187654 L9.12197531,10.7950617 L9.6908642,10.482963 L9.70666667,10.4967901 C9.77382716,10.5580247 9.84691358,10.617284 9.91802469,10.668642 C10.1649383,10.8444444 10.4039506,10.9353086 10.6271605,10.9353086 C10.8483951,10.9353086 11.0854321,10.8483951 11.3323457,10.6745679 C11.4232099,10.611358 11.4962963,10.5481481 11.5417284,10.5066667 L11.5575309,10.4928395 L12.1007407,10.7950617 L12.0928395,10.8187654 C12.0651852,10.9076543 12.0335802,11.0419753 12.0335802,11.1822222 C12.0335802,11.8301235 12.4977778,12.371358 13.1358025,12.4701235 L13.1575309,12.4740741 L13.1614815,12.4958025 C13.177284,12.6024691 13.1950617,12.7545679 13.1950617,12.877037 C13.1950617,12.9995062 13.1753086,13.1516049 13.1595062,13.2582716 L13.1555556,13.28 L13.1338272,13.2839506 C12.4938272,13.382716 12.0316049,13.9239506 12.0316049,14.5718519 C12.0316049,14.7120988 12.0632099,14.8464198 12.0908642,14.9353086 L12.0987654,14.9590123 L11.5535802,15.2612346 L11.5535802,15.2612346 Z M10.5975309,14.7259259 C10.8404938,14.7259259 11.097284,14.8246914 11.36,15.0202469 C11.442963,15.0814815 11.5140741,15.1446914 11.5614815,15.1901235 L12.0316049,14.9293827 C12.0059259,14.8385185 11.9762963,14.7081481 11.9762963,14.5718519 C11.9762963,14.2459259 12.0928395,13.9298765 12.3061728,13.6809877 C12.5135802,13.4419753 12.7960494,13.28 13.1081481,13.2266667 C13.1219753,13.1239506 13.1397531,12.985679 13.1397531,12.8750617 C13.1397531,12.7644444 13.1239506,12.6261728 13.1081481,12.5234568 C12.7980247,12.4701235 12.5135802,12.3101235 12.3061728,12.0691358 C12.0928395,11.8222222 11.9762963,11.5061728 11.9762963,11.1782716 C11.9762963,11.0419753 12.0039506,10.9116049 12.0316049,10.8207407 L11.5654321,10.5619753 C11.5180247,10.6034568 11.4488889,10.662716 11.3659259,10.72 C11.1091358,10.8997531 10.8622222,10.9925926 10.6271605,10.9925926 C10.3920988,10.9925926 10.1412346,10.8997531 9.88246914,10.7160494 C9.81333333,10.6666667 9.74617284,10.611358 9.68098765,10.5540741 L9.19506173,10.8246914 C9.22074074,10.9155556 9.25037037,11.0459259 9.25037037,11.1802469 C9.25037037,11.5061728 9.13382716,11.8222222 8.92049383,12.0711111 C8.71308642,12.3101235 8.43061728,12.4720988 8.11851852,12.5254321 C8.10469136,12.6281481 8.08691358,12.7664198 8.08691358,12.877037 C8.08691358,12.9896296 8.10271605,13.1259259 8.11851852,13.228642 C8.42864198,13.2819753 8.71308642,13.4419753 8.92049383,13.682963 C9.13382716,13.9298765 9.25037037,14.2459259 9.25037037,14.5738272 C9.25037037,14.7101235 9.22271605,14.8404938 9.19506173,14.931358 L9.64148148,15.1802469 C9.68888889,15.1367901 9.75802469,15.0755556 9.84098765,15.014321 C10.1017284,14.822716 10.3565432,14.7259259 10.5975309,14.7259259 L10.5975309,14.7259259 Z" id="Shape"></path>
                <path d="M10.5995062,14.1096296 C9.91802469,14.1096296 9.36296296,13.5545679 9.36296296,12.8730864 C9.36296296,12.1916049 9.91802469,11.6365432 10.5995062,11.6365432 C11.2809877,11.6365432 11.8360494,12.1916049 11.8360494,12.8730864 C11.8360494,13.5545679 11.2809877,14.1096296 10.5995062,14.1096296 Z M10.5995062,12.3338272 C10.3032099,12.3338272 10.0602469,12.5748148 10.0602469,12.8730864 C10.0602469,13.1693827 10.3012346,13.4123457 10.5995062,13.4123457 C10.8958025,13.4123457 11.1387654,13.171358 11.1387654,12.8730864 C11.1387654,12.5748148 10.8977778,12.3338272 10.5995062,12.3338272 Z" id="Shape"></path>
                <path d="M10.5995062,14.1392593 C9.90222222,14.1392593 9.33333333,13.5703704 9.33333333,12.8730864 C9.33333333,12.1758025 9.90222222,11.6069136 10.5995062,11.6069136 C11.2967901,11.6069136 11.865679,12.1758025 11.865679,12.8730864 C11.865679,13.5703704 11.2987654,14.1392593 10.5995062,14.1392593 Z M10.5995062,11.6661728 C9.93382716,11.6661728 9.39259259,12.2074074 9.39259259,12.8730864 C9.39259259,13.5387654 9.93382716,14.08 10.5995062,14.08 C11.2651852,14.08 11.8064198,13.5387654 11.8064198,12.8730864 C11.8064198,12.2074074 11.2651852,11.6661728 10.5995062,11.6661728 Z M10.5995062,13.44 C10.2854321,13.44 10.0306173,13.1851852 10.0306173,12.8711111 C10.0306173,12.557037 10.2854321,12.3022222 10.5995062,12.3022222 C10.9135802,12.3022222 11.1683951,12.557037 11.1683951,12.8711111 C11.1683951,13.1851852 10.9135802,13.44 10.5995062,13.44 Z M10.5995062,12.3634568 C10.3190123,12.3634568 10.0898765,12.5925926 10.0898765,12.8730864 C10.0898765,13.1535802 10.3190123,13.382716 10.5995062,13.382716 C10.88,13.382716 11.1091358,13.1535802 11.1091358,12.8730864 C11.1091358,12.5925926 10.88,12.3634568 10.5995062,12.3634568 Z" id="Shape"></path>
            </g>
        </g>
    </g>
</svg>