<?xml version="1.0" encoding="UTF-8" standalone="no"?>
<svg width="16px" height="14px" viewBox="0 0 16 14" version="1.1" xmlns="http://www.w3.org/2000/svg" xmlns:xlink="http://www.w3.org/1999/xlink">
    <!-- Generator: Sketch 46.2 (44496) - http://www.bohemiancoding.com/sketch -->
    <title>Fill 1@2x</title>
    <desc>Created with Sketch.</desc>
    <defs></defs>
    <g id="1.3.3" stroke="none" stroke-width="1" fill="none" fill-rule="evenodd">
        <g id="库存管理-入库详情" transform="translate(-16.000000, -462.000000)" fill="#FFFFFF">
            <g id="Group-6">
                <g id="家具" transform="translate(0.000000, 449.000000)">
                    <g id="Group-11-Copy">
                        <g id="Page-1" transform="translate(16.000000, 13.000000)">
                            <path d="M14.7214696,6.95430282 C14.4073738,7.33286972 13.9363195,7.56 13.439016,7.56 L12.967885,7.56 L12.967885,10.9420599 C12.967885,11.2197183 12.863246,11.4974014 12.6538658,11.6992923 C12.4444089,11.9012077 12.1565623,12.0020915 11.868639,12.0020915 L4.121623,12.0020915 C3.51960383,12.0020915 2.99615335,11.5226162 2.99615335,10.9168204 L2.99615335,7.56 L2.55122045,7.56 C2.05391693,7.56 1.58291374,7.33286972 1.26881789,6.95430282 C0.954696486,6.55039789 0.850057508,6.04558451 1.00699042,5.56610915 C1.13790415,5.08653521 1.55661342,4.65741549 2.05391693,4.53129225 C2.21097764,4.48073944 2.3941853,4.45552465 2.55122045,4.45552465 C3.3102492,4.45552465 3.99076038,4.98555282 4.14779553,5.71757042 C4.17396805,5.81847887 4.17396805,5.91946127 4.17396805,6.04558451 L4.17396805,9.60441901 L11.8163195,9.60441901 L11.8163195,5.81847887 C11.9472077,4.90985915 12.9417125,4.27884859 13.9100703,4.55650704 C14.4335208,4.70796831 14.8523578,5.11177465 14.9831438,5.61656338 C15.1402045,6.07092254 15.0355655,6.57561268 14.7214696,6.95430282 M4.121623,0.896788732 L11.8424665,0.896788732 C12.4444089,0.896788732 12.967885,1.37636268 12.967885,1.98205986 L12.967885,3.59735915 C11.8947859,3.79937324 11.0573419,4.6322007 10.9002812,5.69223239 L10.9002812,8.67048592 L5.1161278,8.67048592 L5.1161278,5.99513028 C5.1161278,5.81847887 5.08998083,5.66701761 5.06383387,5.49034155 C4.85447923,4.50605282 4.04307987,3.74882042 3.022377,3.57214437 L3.022377,1.95684507 C3.022377,1.37636268 3.51960383,0.896788732 4.121623,0.896788732 M15.8991821,5.33888028 C15.6898275,4.53129225 15.0093163,3.87504225 14.1718466,3.64791197 C14.093278,3.62269718 13.988639,3.59735915 13.9100703,3.59735915 L13.9100703,1.98205986 C13.9100703,0.896788732 12.9940319,0.0134084507 11.868639,0.0134084507 L4.121623,0.0134084507 C2.99615335,0.0134084507 2.08008946,0.896788732 2.08008946,1.98205986 L2.08008946,3.59735915 C1.97547604,3.62269718 1.87070927,3.62269718 1.76612141,3.67312676 C0.954696486,3.90025704 0.300434505,4.55650704 0.0910031949,5.33888028 C-0.118376997,6.09613732 0.0386837061,6.90375 0.509789137,7.50954577 C0.902402556,8.01433451 1.45202556,8.31715845 2.08008946,8.44338028 L2.08008946,10.9672746 C2.08008946,11.9012077 2.76060064,12.6583415 3.65049201,12.8854718 L3.65049201,13.5417218 C3.65049201,13.7941655 3.8598722,13.996081 4.121623,13.996081 C4.38332268,13.996081 4.59267732,13.7941655 4.59267732,13.5417218 L4.59267732,12.9360246 L11.4237572,12.9360246 L11.4237572,13.516507 C11.4237572,13.7688521 11.6331118,13.9708415 11.8947859,13.9708415 C12.1565623,13.9708415 12.3659425,13.7688521 12.3659425,13.516507 L12.3659425,12.8854718 C12.7323578,12.8098028 13.0726006,12.6331268 13.3343003,12.3554437 C13.7268626,11.9768768 13.9363195,11.4974014 13.9363195,10.9672746 L13.9363195,8.44338028 C14.5644089,8.34247183 15.1140319,8.01433451 15.5066198,7.50954577 C15.9516038,6.90375 16.108639,6.09613732 15.8991821,5.33888028" id="Fill-1"></path>
                        </g>
                    </g>
                </g>
            </g>
        </g>
    </g>
</svg>