<?xml version="1.0" encoding="UTF-8" standalone="no"?>
<svg width="16px" height="16px" viewBox="0 0 16 16" version="1.1" xmlns="http://www.w3.org/2000/svg" xmlns:xlink="http://www.w3.org/1999/xlink">
    <!-- Generator: Sketch 46.2 (44496) - http://www.bohemiancoding.com/sketch -->
    <title>运营管理@2x</title>
    <desc>Created with Sketch.</desc>
    <defs></defs>
    <g id="切图" stroke="none" stroke-width="1" fill="none" fill-rule="evenodd">
        <g id="运营管理" fill="#FFFFFF">
            <path d="M14.76728,5.82483941 C14.4343476,6.02211816 14.0606869,6.15355733 13.669955,6.21083696 C14.3983853,9.02353914 12.588748,11.8648811 9.57225246,12.6447962 C9.13022018,11.8510412 8.07492335,11.5383232 7.21512247,11.9464006 C6.35532159,12.354478 6.01658326,13.3287119 6.45861554,14.1224668 C6.90056117,14.9162218 7.95594466,15.2289398 8.81574554,14.8208624 C9.28273475,14.5992638 9.61722693,14.1958264 9.72710674,13.7218294 C13.4705595,12.8423949 15.7331478,9.32785722 14.780365,5.87187911 C14.7761189,5.85619921 14.7717861,5.84051931 14.76728,5.82483941 M5.28165368,2.70277919 C7.3064579,1.71286546 9.77251449,1.91454418 11.5772124,3.21781593 C11.2948872,4.07077052 11.8149965,4.9736448 12.7389229,5.23428315 C13.6628492,5.4949215 14.6408489,5.01476454 14.9231741,4.16180995 C15.2054994,3.30885535 14.68539,2.40598107 13.7615504,2.14534272 C13.2588589,2.00350362 12.7137926,2.07790315 12.2769597,2.34782144 C10.0718243,0.775511401 7.06659408,0.560312764 4.62523445,1.79982491 L4.65019138,1.81982478 C4.92307113,2.07174319 5.13789137,2.37214129 5.28165368,2.70277919 M2.16966323,7.46274903 C2.1699232,6.72139373 2.33742926,5.98819838 2.66143606,5.30980267 L2.77192247,5.30980267 C3.73805027,5.31108267 4.52237377,4.58900724 4.52376026,3.69709289 C4.52514676,2.80517854 3.74298966,2.08110313 2.77686186,2.07982314 C1.81073406,2.07854315 1.02641056,2.80061857 1.02502406,3.69253292 C1.02433081,4.14317006 1.22753914,4.57364734 1.58577507,4.8798054 C0.0401785635,8.14978468 1.65856611,11.9573606 5.20063032,13.3842315 C5.21605509,13.3904715 5.23156651,13.3966314 5.24699128,13.4027114 C5.25349048,13.0307138 5.34352607,12.6640761 5.5112921,12.3257582 C3.4722763,11.4379238 2.17087642,9.54401585 2.16966323,7.46274903" id="Fill-1"></path>
        </g>
    </g>
</svg>