<?xml version="1.0" encoding="UTF-8" standalone="no"?>
<svg width="16px" height="16px" viewBox="0 0 16 16" version="1.1" xmlns="http://www.w3.org/2000/svg" xmlns:xlink="http://www.w3.org/1999/xlink">
    <!-- Generator: Sketch 46.2 (44496) - http://www.bohemiancoding.com/sketch -->
    <title>方案管理@2x</title>
    <desc>Created with Sketch.</desc>
    <defs></defs>
    <g id="切图" stroke="none" stroke-width="1" fill="none" fill-rule="evenodd">
        <g id="方案管理" fill="#FFFFFF">
            <path d="M9.80669986,10.2927664 L3.5902259,10.2927664 C3.30420876,10.2927664 3.07208979,10.0611703 3.07208979,9.77472127 C3.07208979,9.48822676 3.30420876,9.25667609 3.5902259,9.25667609 L9.80669986,9.25667609 C10.0930807,9.25667609 10.324745,9.48822676 10.324745,9.77472127 C10.324745,10.0611703 10.0931716,10.2927664 9.80669986,10.2927664 M6.69851971,7.1845863 L3.5902259,7.1845863 C3.30420876,7.1845863 3.07208979,6.95246732 3.07208979,6.66645019 C3.07208979,6.38050125 3.30420876,6.14838228 3.5902259,6.14838228 L6.69851971,6.14838228 C6.98435498,6.14838228 7.21647396,6.38050125 7.21647396,6.66645019 C7.21647396,6.95246732 6.98435498,7.1845863 6.69851971,7.1845863 M8.83535094,7.1845863 C8.70275374,7.1845863 8.57017927,7.1336888 8.46913444,7.03264396 C8.26649918,6.83019057 8.26649918,6.50277801 8.46913444,6.30023369 L13.6173746,1.15192529 C13.819919,0.949358236 14.1473088,0.949358236 14.3498531,1.15192529 C14.5525111,1.35446961 14.5525111,1.68185944 14.3498531,1.88440376 L9.20163563,7.03264396 C9.10065899,7.1343253 8.9679936,7.1845863 8.83535094,7.1845863 M11.8788806,15.47315 L2.55413554,15.47315 C1.69733441,15.47315 1,14.7759066 1,13.9190145 L1,3.55815638 C1,2.70144618 1.69724348,2.00411177 2.55413554,2.00411177 L9.80669986,2.00411177 C10.0931716,2.00411177 10.324745,2.23623075 10.324745,2.52215695 C10.324745,2.80808315 10.0931716,3.04020213 9.80669986,3.04020213 L2.55413554,3.04020213 C2.26866398,3.04020213 2.03609036,3.27273029 2.03609036,3.55815638 L2.03609036,13.9190145 C2.03609036,14.2050316 2.26866398,14.4370597 2.55413554,14.4370597 L11.8788806,14.4370597 C12.1648068,14.4370597 12.3968348,14.2050316 12.3968348,13.9190145 L12.3968348,5.63042803 C12.3968348,5.34441089 12.6285219,5.11238285 12.9149709,5.11238285 C13.2014427,5.11238285 13.4329479,5.34441089 13.4329479,5.63042803 L13.4329479,13.9190145 C13.4329479,14.7759066 12.7356135,15.47315 11.8788806,15.47315" id="Page-1"></path>
        </g>
    </g>
</svg>