<?xml version="1.0" encoding="UTF-8" standalone="no"?>
<svg width="16px" height="16px" viewBox="0 0 16 16" version="1.1" xmlns="http://www.w3.org/2000/svg" xmlns:xlink="http://www.w3.org/1999/xlink">
    <!-- Generator: Sketch 46.2 (44496) - http://www.bohemiancoding.com/sketch -->
    <title>教具管理@2x</title>
    <desc>Created with Sketch.</desc>
    <defs></defs>
    <g id="切图" stroke="none" stroke-width="1" fill="none" fill-rule="evenodd">
        <g id="教具管理">
            <g id="Page-1" transform="translate(1.000000, 1.000000)">
                <path d="M6.8,12.6 C4.70061978,12.6 3,11.3441223 3,9.80001804 C3,8.25594986 4.70061978,7 6.8,7 C8.89938022,7 10.6,8.25594986 10.6,9.80001804 C10.6,11.3441223 8.89938022,12.6 6.8,12.6 Z M7,11.6 C8.69531573,11.6 10,10.6533897 10,9.6 C10,8.54667976 8.69531573,7.6 7,7.6 C5.30468427,7.6 4,8.54667976 4,9.6 C4,10.6533897 5.30468427,11.6 7,11.6 Z" id="Fill-3" fill="#FFFFFF"></path>
                <path d="M4,7.2 C3.33486049,7.2 2.8,6.57606987 2.8,5.79999023 C2.8,5.02400826 3.33486049,4.4 4,4.4 C4.66512277,4.4 5.2,5.02400826 5.2,5.79999023 C5.2,6.57606987 4.66512277,7.2 4,7.2 Z M4.2,6.4 C4.53507086,6.4 4.8,6.127271 4.8,5.8 C4.8,5.47270998 4.53507086,5.2 4.2,5.2 C3.872729,5.2 3.6,5.47270998 3.6,5.8 C3.6,6.127271 3.86492914,6.4 4.2,6.4 Z" id="Fill-5" fill="#FFFFFF"></path>
                <path d="M9.6,7.2 C8.93487723,7.2 8.4,6.57606987 8.4,5.79999023 C8.4,5.02400826 8.93487723,4.4 9.6,4.4 C10.2651228,4.4 10.8,5.02400826 10.8,5.79999023 C10.8,6.57606987 10.2651228,7.2 9.6,7.2 Z M9.8,5.2 C9.472729,5.2 9.2,5.47270998 9.2,5.8 C9.2,6.127271 9.46492914,6.4 9.8,6.4 C10.12729,6.4 10.4,6.127271 10.4,5.8 C10.4,5.47270998 10.1350709,5.2 9.8,5.2 Z" id="Fill-9" fill="#FFFFFF"></path>
                <path d="M5.09119315,1.44021392 C5.6980573,1.283691 6.33835377,1.2 6.99999084,1.2 C7.65821479,1.2 8.29531741,1.28304267 8.89939342,1.43832707 C9.36440307,0.563571526 10.2804081,0 11.2960113,0 C12.7905035,0 14,1.207728 14,2.70001174 C14,3.4298132 13.7032448,4.11728581 13.195658,4.61760663 C13.7092217,5.5078516 14,6.52252971 14,7.5999551 C14,8.77701552 13.6473958,9.90985917 13.0021392,10.8956309 C12.8895806,11.0647753 12.6644817,11.1162657 12.4994263,11.0132848 C12.3269341,10.9029944 12.2744007,10.6822877 12.386941,10.5130535 C12.9571341,9.63768 13.2647332,8.64456277 13.2647332,7.60730062 C13.2647332,4.4735674 10.4662278,1.92826561 6.99999084,1.92826561 C3.53377216,1.92826561 0.735248517,4.48093087 0.735248517,7.60730062 C0.735248517,10.7411416 3.53377216,13.2863715 6.99999084,13.2863715 C8.61304989,13.2863715 10.1285704,12.7272862 11.2765398,11.7562954 C11.4265752,11.6239145 11.6591475,11.6459151 11.7942178,11.7930589 C11.9292515,11.9401667 11.9067581,12.1682189 11.7567227,12.3006178 C10.4662278,13.3820428 8.78563363,14 6.99999084,14 C3.13608953,14 0,11.1457376 0,7.5999551 C0,6.52066533 0.290574829,5.50544346 0.803802421,4.61528759 C0.296577541,4.11564907 1.8772563e-06,3.4289262 1.8772563e-06,2.69982937 C1.8772563e-06,1.20993562 1.20724664,0.004141875 2.69893329,0.004141875 C3.71981194,0.004141875 4.62798746,0.566850994 5.09119315,1.44021392 Z M4.3593974,1.66984976 C4.01213157,1.10791877 3.39413325,0.749098125 2.70663004,0.749098125 C1.63013617,0.749098125 0.761248087,1.61694187 0.761248087,2.69214187 C0.761248087,3.16567416 0.93381295,3.61459597 1.23552934,3.96395914 C2.00499432,2.94542168 3.0892174,2.14216149 4.3593974,1.66984976 Z M9.6329948,1.66800234 C10.9058018,2.14054641 11.9923563,2.94554155 12.7632851,3.9656152 C13.0648775,3.61760298 13.2373409,3.17217709 13.2373409,2.69231191 C13.2373409,1.61538714 12.3667998,0.746151258 11.2883001,0.746151258 C10.6063342,0.746151258 9.98238381,1.10538677 9.6329948,1.66800234 Z" id="Fill-13" fill="#FFFFFF"></path>
                <path d="M7.00003617,10 C7.55558369,10 8,9.54818291 8,9.00002713 C8,8.44442033 7.548187,8 7.00003617,8 C6.45184917,8 6,8.45185326 6,9.00002713 C6,9.54818291 6.44441631,10 7.00003617,10" id="Fill-20" fill="#FEFEFE"></path>
            </g>
        </g>
    </g>
</svg>